<svg width="27" height="29" viewBox="0 0 27 29" fill="none" xmlns="http://www.w3.org/2000/svg">
<path d="M14.2075 27L25.6785 28.3231L21.0888 17.7274L14.2075 27ZM12.7925 2L1.3215 0.676938L5.91117 11.2726L12.7925 2ZM25 14.5C25 17.7341 23.7486 20.6459 21.7454 22.7295L23.1872 24.1157C25.5457 21.6625 27 18.2551 27 14.5H25ZM14.2075 3C20.114 3 25 8.09303 25 14.5H27C27 7.09985 21.3267 1 14.2075 1V3ZM2 14.5C2 11.2659 3.25137 8.35406 5.25458 6.27047L3.81283 4.88434C1.45435 7.33745 0 10.7449 0 14.5H2ZM12.7925 26C6.88604 26 2 20.907 2 14.5H0C0 21.9001 5.67328 28 12.7925 28V26Z" fill="#A70064"/>
</svg>
