<svg width="115" height="114" viewBox="0 0 115 114" fill="none" xmlns="http://www.w3.org/2000/svg">
<ellipse cx="56.0719" cy="107.29" rx="55.6969" ry="5.7125" fill="url(#paint0_radial_405_4718)" fill-opacity="0.3"/>
<path d="M4.94727 70.3821C3.96012 70.0726 3.22461 69.589 2.37295 68.6218C0.321241 66.3393 -0.22072 62.2966 1.07612 58.7761C1.98584 56.2615 3.90206 54.2111 5.8957 53.6115C6.78607 53.36 7.11511 53.1666 7.17318 52.8764C7.23125 52.6443 7.48287 51.4644 7.7345 50.2458C9.24425 43.2048 12.3218 35.9318 16.1349 30.5157C17.4317 28.6587 20.0254 25.5638 21.3803 24.2291L22.561 22.6903V58.0497C22.561 75.8262 22.5804 76.5999 22.9481 78.0313C24.1288 82.6737 27.7677 85.8846 32.5292 86.5036L34.1745 86.7164V90.2175C34.1745 92.1325 34.2325 94.4537 34.31 95.3241L34.4261 96.949L33.4777 96.7942C32.9551 96.6975 31.6582 96.6395 30.5936 96.6588C23.8578 96.7362 18.7866 100.295 20.7803 103.526C22.0384 105.557 26.316 106.737 30.5356 106.214C37.0778 105.402 40.8522 101.881 38.2779 98.9607C37.7746 98.3804 37.7166 98.1482 37.6004 96.4074C37.3488 92.6935 37.2133 87.6836 37.3488 87.1806L37.4649 86.6584H55.9497H74.4151L74.5506 87.3547C74.6861 88.0898 74.4925 94.1249 74.2602 96.8136C74.1247 98.1676 74.028 98.4964 73.5828 98.9607C70.9698 101.785 74.8603 105.421 81.3638 106.214C85.5446 106.737 89.861 105.557 91.0998 103.545C92.7063 100.953 89.861 98.0902 84.5962 96.9683C83.0671 96.6395 79.8541 96.5428 78.4217 96.7942L77.4733 96.949L77.5894 95.4402C77.6669 94.6278 77.7249 92.3259 77.7249 90.3336V86.7164L80.4928 86.6197C84.4607 86.4649 86.4931 85.7106 88.8932 83.4861C90.1707 82.3061 91.2933 80.5459 91.9127 78.7276L92.3385 77.4703L92.4353 56.1928L92.5321 34.9153L93.945 36.5594C95.7258 38.6098 98.2614 42.4204 99.6744 45.0704C101.765 49.0745 103.894 55.2643 104.746 59.81L105.094 61.6863L104.068 62.7695C103.12 63.756 102.113 65.5743 102.113 66.29C102.113 66.464 101.862 67.025 101.533 67.5279C100.507 69.2108 100.12 70.6615 100.1 72.9247C100.081 75.3232 100.429 76.4645 101.455 77.3736C102.345 78.1474 103.313 78.1667 104.378 77.393L105.133 76.8514L105.713 77.2962C106.546 77.9733 107.997 78.3988 109.159 78.3021C111.791 78.07 113.688 76.0003 114.423 72.5378C114.791 70.7776 114.656 68.998 114.017 66.9863C113.069 63.9881 110.881 61.7443 108.462 61.222C108.113 61.164 107.901 60.9706 107.823 60.6804C107.784 60.4483 107.513 59.2103 107.223 57.9337C105.075 48.088 100.603 39.3835 94.2935 32.7488L92.4353 30.7951V20.3692C92.4353 10.6782 92.4159 9.8271 92.0675 8.47307C91.1965 5.12669 89.2029 2.61208 86.1253 1.08396C83.8607 -0.0572891 85.1382 0.000740051 57.4982 0.000740051C29.8581 0.000740051 31.1356 -0.0572891 28.871 1.08396C25.7934 2.61208 23.7998 5.12669 22.9288 8.47307C22.5804 9.84644 22.561 22.6903 22.561 22.6903V27.1693C22.561 27.1693 19.2318 30.9606 17.664 33.3204C14.2187 38.5044 11.296 45.9903 10.154 52.5283L9.9217 53.9403L10.6959 54.656C11.6056 55.5071 12.3412 56.7257 12.8057 58.1765C12.9993 58.7568 13.3477 59.5692 13.5799 59.9561C14.509 61.4261 14.8961 62.9543 14.8961 65.2368C14.9155 67.0937 14.8574 67.4806 14.4509 68.293C13.5219 70.1693 12.3025 70.6142 10.754 69.6277L9.88299 69.0861L9.10876 69.6083C7.85063 70.4594 6.20539 70.7496 4.94727 70.3821Z" fill="#CA66A2"/>
<path d="M38.452 7.25463C35.5874 7.95099 32.8001 10.0787 31.4839 12.5547C30.3032 14.7985 30.3032 14.6824 30.3032 26.9073C30.3032 39.1516 30.2839 38.9388 31.5227 41.2794C32.3162 42.7688 34.1744 44.6064 35.6841 45.4188C36.3229 45.767 37.5229 46.2119 38.3552 46.4247C39.7876 46.7922 40.5618 46.8115 57.4981 46.8115C74.3182 46.8115 75.2086 46.7922 76.6216 46.444C80.4927 45.4382 83.28 42.8268 84.3832 39.0936C84.6542 38.1651 84.6929 36.579 84.6929 26.9073C84.6929 18.1062 84.6349 15.5529 84.4219 14.7791C83.6864 11.9744 81.5379 9.44042 78.8475 8.16376C77.9765 7.73821 76.7764 7.29332 76.2151 7.17726C74.6086 6.84843 39.8263 6.9258 38.452 7.25463Z" fill="white"/>
<path d="M41.3521 14.6993C40.2499 15.0511 39.1614 15.8357 38.4675 16.7693C37.6511 17.8787 37.3926 18.6904 37.3926 20.2463C37.3926 21.4098 37.4334 21.6127 37.828 22.4515C38.9709 24.8462 41.4881 26.2261 43.9645 25.8203C47.1348 25.2926 49.3118 22.3297 48.7812 19.2722C48.1825 15.7952 44.6856 13.644 41.3521 14.6993ZM42.427 17.5404C43.4338 18.4739 42.9984 20.1651 41.6786 20.5168C40.2091 20.9092 38.9437 19.191 39.8009 17.9463C39.9778 17.6892 40.2771 17.3916 40.454 17.2969C40.9575 17.0398 42.0188 17.1616 42.427 17.5404Z" fill="#2F3237"/>
<path d="M70.2949 14.7203C66.7703 15.9243 65.248 19.7662 67.0309 22.9858C68.128 24.9608 70.6651 26.1919 72.9143 25.8266C76.5348 25.2314 78.7565 21.6465 77.5771 18.3322C76.5074 15.3426 73.2434 13.7328 70.2949 14.7203ZM71.0491 17.3177C71.2274 17.4124 71.5291 17.6964 71.7074 17.9535C72.5714 19.198 71.2686 20.9296 69.7874 20.5237C68.6217 20.1855 68.1006 18.9004 68.7589 17.9399C69.1291 17.3853 69.5817 17.1418 70.2263 17.1418C70.4869 17.1418 70.8571 17.223 71.0491 17.3177Z" fill="#2F3237"/>
<path d="M47.4139 41.0412C47.2591 40.6543 47.3752 40.4996 48.7494 39.4937C50.2592 38.3525 52.4464 37.2499 54.3045 36.6696C56.1433 36.1087 59.0467 36.07 60.7694 36.5729C62.9372 37.2112 65.4535 38.7394 66.9439 40.3062C67.4084 40.8091 67.4471 40.9251 67.1955 41.1186C66.9632 41.312 66.7116 41.1573 65.7632 40.3255C64.3695 39.0875 62.8985 38.1784 61.35 37.6174C59.7629 37.0372 56.6272 36.9211 54.8852 37.366C53.1238 37.8109 50.7818 38.9908 49.1366 40.2481C48.3623 40.8478 47.6849 41.3313 47.6268 41.3313C47.5687 41.3313 47.472 41.1959 47.4139 41.0412Z" fill="#2F3237"/>
<path d="M62.2401 50.0613C61.7562 50.2547 60.9433 50.8156 60.382 51.3573C59.0271 52.6919 58.7561 53.5817 58.7561 56.6573C58.7561 58.8237 58.8142 59.2106 59.2206 60.0617C60.3433 62.4409 62.9176 63.7949 65.2983 63.2533C67.1759 62.8278 68.5308 61.7639 69.3243 60.0617C69.7308 59.2106 69.7889 58.8044 69.7889 56.6573C69.7889 53.5817 69.5179 52.7113 68.163 51.3379C66.5952 49.7905 64.3306 49.2875 62.2401 50.0613Z" fill="#2F3237"/>
<path d="M35.5817 50.0613C35.0978 50.2547 34.2849 50.8156 33.7235 51.3573C32.3686 52.6919 32.0977 53.5817 32.0977 56.6573C32.0977 58.8237 32.1557 59.2106 32.5622 60.0617C33.6848 62.4409 36.2591 63.7949 38.6399 63.2533C40.5174 62.8278 41.8723 61.7639 42.6659 60.0617C43.0724 59.2106 43.1304 58.8044 43.1304 56.6573C43.1304 53.5817 42.8595 52.7113 41.5046 51.3379C39.9367 49.7905 37.6721 49.2875 35.5817 50.0613Z" fill="white"/>
<path d="M75.8857 50.0607C74.5502 50.5056 73.0598 51.995 72.6146 53.3491C72.1114 54.8578 72.2469 59.152 72.8275 60.2546C73.6211 61.7634 75.0341 62.8466 76.718 63.2528C79.3891 63.8911 82.428 62.0342 83.1635 59.3068C83.2796 58.8619 83.3377 57.4498 83.299 55.9991C83.2409 53.6586 83.2022 53.4264 82.7183 52.5753C81.286 50.1574 78.6149 49.1516 75.8857 50.0607Z" fill="#2F3237"/>
<path d="M49.2273 50.0607C47.8917 50.5056 46.4013 51.995 45.9562 53.3491C45.4529 54.8578 45.5884 59.152 46.1691 60.2546C46.9627 61.7634 48.3756 62.8466 50.0596 63.2528C52.7307 63.8911 55.7695 62.0342 56.5051 59.3068C56.6212 58.8619 56.6793 57.4498 56.6405 55.9991C56.5825 53.6586 56.5438 53.4264 56.0599 52.5753C54.6275 50.1574 51.9565 49.1516 49.2273 50.0607Z" fill="white"/>
<path d="M62.5694 65.2643C60.808 65.922 59.4531 67.3147 58.9499 68.9782C58.795 69.4811 58.737 70.6611 58.795 72.2666C58.8531 74.6071 58.8918 74.8199 59.4338 75.787C60.4596 77.6633 62.0855 78.5918 64.2727 78.5918C66.5567 78.5918 68.2019 77.6053 69.1891 75.5936C69.7698 74.4523 69.7891 74.2976 69.7891 71.9571C69.7891 68.9202 69.5181 67.9917 68.26 66.7344C67.7761 66.2508 67.0212 65.6899 66.5954 65.4964C65.6083 65.0129 63.5372 64.8968 62.5694 65.2643Z" fill="#2F3237"/>
<path d="M35.9112 65.2653C34.1498 65.923 32.7949 67.3157 32.2917 68.9792C32.1368 69.4821 32.0788 70.6621 32.1368 72.2675C32.1949 74.6081 32.2336 74.8208 32.7756 75.788C33.8014 77.6643 35.4273 78.5928 37.6145 78.5928C39.8985 78.5928 41.5437 77.6063 42.5309 75.5946C43.1115 74.4533 43.1309 74.2986 43.1309 71.958C43.1309 68.9212 42.8599 67.9927 41.6018 66.7354C41.1179 66.2518 40.363 65.6908 39.9372 65.4974C38.9501 65.0138 36.879 64.8978 35.9112 65.2653Z" fill="white"/>
<path d="M76.3705 65.1678C74.8027 65.6707 73.622 66.6379 72.9252 67.9726C72.4219 68.9204 72.4026 69.0751 72.4026 71.8605C72.4026 74.5106 72.4413 74.8394 72.8478 75.5744C73.893 77.5668 75.6156 78.6113 77.8222 78.6113C80.0094 78.592 81.6353 77.6442 82.6611 75.7872C83.2031 74.8201 83.2418 74.6073 83.2999 72.2087C83.3579 70.1583 83.2999 69.462 83.0483 68.6496C82.6418 67.4696 81.3449 66.0576 80.1449 65.4966C79.3126 65.0904 77.1447 64.9163 76.3705 65.1678Z" fill="#2F3237"/>
<path d="M49.7121 65.1678C48.1443 65.6707 46.9636 66.6379 46.2667 67.9726C45.7635 68.9204 45.7441 69.0751 45.7441 71.8605C45.7441 74.5106 45.7829 74.8394 46.1893 75.5744C47.2345 77.5668 48.9572 78.6113 51.1638 78.6113C53.351 78.592 54.9768 77.6442 56.0027 75.7872C56.5447 74.8201 56.5834 74.6073 56.6414 72.2087C56.6995 70.1583 56.6414 69.462 56.3898 68.6496C55.9833 67.4696 54.6865 66.0576 53.4864 65.4966C52.6541 65.0904 50.4863 64.9163 49.7121 65.1678Z" fill="white"/>
<defs>
<radialGradient id="paint0_radial_405_4718" cx="0" cy="0" r="1" gradientUnits="userSpaceOnUse" gradientTransform="translate(56.0719 107.29) rotate(90) scale(5.7125 55.6969)">
<stop stop-color="#4A4A4A" stop-opacity="0.83"/>
<stop offset="1" stop-color="#4A4A4A" stop-opacity="0"/>
</radialGradient>
</defs>
</svg>
